<?xml version="1.0" encoding="UTF-8"?>
<svg xmlns="http://www.w3.org/2000/svg" xmlns:xlink="http://www.w3.org/1999/xlink" width="99px" height="99px" viewBox="0 0 99 99" version="1.1">
<defs>
<linearGradient id="linear0" gradientUnits="userSpaceOnUse" x1="19.075001" y1="18.782" x2="34.897999" y2="34.658001" gradientTransform="matrix(1.546875,0,0,1.546875,0,0)">
<stop offset="0" style="stop-color:rgb(21.960784%,49.411765%,72.156863%);stop-opacity:1;"/>
<stop offset="1" style="stop-color:rgb(21.176471%,41.176471%,58.039216%);stop-opacity:1;"/>
</linearGradient>
<linearGradient id="linear1" gradientUnits="userSpaceOnUse" x1="28.809" y1="28.882" x2="45.803001" y2="45.162998" gradientTransform="matrix(1.546875,0,0,1.546875,0,0)">
<stop offset="0" style="stop-color:rgb(100%,87.843137%,32.156863%);stop-opacity:1;"/>
<stop offset="1" style="stop-color:rgb(100%,76.470588%,19.215686%);stop-opacity:1;"/>
</linearGradient>
</defs>
<g id="surface1">
<path style=" stroke:none;fill-rule:nonzero;fill:url(#linear0);" d="M 49.320312 24.75 C 36.753906 24.75 37.539062 30.199219 37.539062 30.199219 L 37.554688 35.847656 L 49.546875 35.847656 L 49.546875 37.539062 L 32.789062 37.539062 C 32.789062 37.539062 24.75 36.625 24.75 49.308594 C 24.75 61.988281 31.769531 61.539062 31.769531 61.539062 L 35.957031 61.539062 L 35.957031 55.652344 C 35.957031 55.652344 35.730469 48.636719 42.863281 48.636719 L 54.757812 48.636719 C 54.757812 48.636719 61.4375 48.742188 61.4375 42.175781 L 61.4375 31.320312 C 61.4375 31.320312 62.453125 24.75 49.320312 24.75 Z M 42.710938 28.546875 C 43.902344 28.546875 44.867188 29.511719 44.867188 30.703125 C 44.867188 31.898438 43.902344 32.863281 42.710938 32.863281 C 42.136719 32.863281 41.585938 32.636719 41.183594 32.230469 C 40.777344 31.824219 40.550781 31.277344 40.550781 30.703125 C 40.550781 29.511719 41.515625 28.546875 42.710938 28.546875 Z M 42.710938 28.546875 "/>
<path style=" stroke:none;fill-rule:nonzero;fill:url(#linear1);" d="M 49.679688 73.992188 C 62.246094 73.992188 61.460938 68.542969 61.460938 68.542969 L 61.445312 62.894531 L 49.453125 62.894531 L 49.453125 61.203125 L 66.210938 61.203125 C 66.210938 61.203125 74.25 62.113281 74.25 49.433594 C 74.25 36.753906 67.230469 37.207031 67.230469 37.207031 L 63.042969 37.207031 L 63.042969 43.089844 C 63.042969 43.089844 63.269531 50.105469 56.136719 50.105469 L 44.242188 50.105469 C 44.242188 50.105469 37.5625 50 37.5625 56.566406 L 37.5625 67.421875 C 37.5625 67.421875 36.546875 73.992188 49.679688 73.992188 Z M 56.289062 70.195312 C 55.71875 70.195312 55.167969 69.96875 54.765625 69.566406 C 54.359375 69.160156 54.132812 68.609375 54.132812 68.039062 C 54.132812 66.847656 55.097656 65.882812 56.289062 65.882812 C 57.484375 65.882812 58.449219 66.84375 58.449219 68.039062 C 58.449219 69.230469 57.484375 70.195312 56.289062 70.195312 Z M 56.289062 70.195312 "/>
</g>
</svg>
